<?xml version="1.0" standalone="no"?>
<!DOCTYPE svg PUBLIC "-//W3C//DTD SVG 20010904//EN"
 "http://www.w3.org/TR/2001/REC-SVG-20010904/DTD/svg10.dtd">
<svg version="1.0" xmlns="http://www.w3.org/2000/svg"
 width="224.000000pt" height="224.000000pt" viewBox="0 0 224.000000 224.000000"
 preserveAspectRatio="xMidYMid meet">
<metadata>
Created by potrace 1.16, written by Peter Selinger 2001-2019
</metadata>
<g transform="translate(0.000000,224.000000) scale(0.100000,-0.100000)"
fill="#000000" stroke="none">
<path d="M1550 2041 c-34 -11 -87 -38 -135 -71 -22 -15 -58 -33 -80 -40 -22
-7 -65 -37 -95 -65 -60 -57 -88 -75 -119 -75 -11 0 -32 -5 -48 -11 l-28 -12
24 -6 c18 -5 4 -10 -52 -19 -42 -8 -77 -18 -77 -23 0 -5 7 -9 16 -9 9 0 -10
-14 -44 -31 -35 -19 -58 -37 -56 -44 3 -7 -6 -19 -20 -29 -34 -21 -95 -83 -89
-89 2 -3 -18 -24 -46 -48 -28 -24 -46 -46 -40 -50 6 -3 -17 -16 -50 -28 -64
-23 -94 -48 -48 -39 15 3 24 1 21 -3 -3 -5 -21 -9 -41 -9 -30 0 -34 -2 -24
-14 13 -15 6 -22 -54 -54 -13 -8 -15 -11 -6 -12 10 0 4 -11 -15 -32 -17 -18
-43 -55 -59 -82 l-27 -49 26 7 c26 6 26 5 15 -16 -6 -13 -21 -33 -32 -45 l-20
-23 21 0 c30 0 28 -4 -15 -44 l-37 -34 23 -51 c33 -70 121 -200 121 -178 0 32
16 17 29 -27 7 -24 33 -67 57 -96 48 -56 51 -56 29 5 -8 22 -14 55 -15 74 0
30 7 21 49 -66 57 -117 97 -183 111 -183 13 0 13 46 -1 73 -7 15 -2 13 16 -8
14 -16 28 -41 32 -55 14 -61 81 -114 97 -77 3 7 19 -3 43 -30 32 -36 133 -94
133 -77 0 3 -8 18 -19 32 -24 35 -51 99 -51 124 0 12 19 -9 51 -56 60 -90 99
-122 171 -142 73 -20 210 -29 234 -16 16 9 12 12 -26 21 -125 31 -131 34 -163
71 -18 21 -46 62 -64 92 -34 57 -58 138 -41 138 6 0 7 7 4 16 -5 12 -2 15 10
10 13 -5 15 -1 10 20 -6 23 -4 25 15 19 23 -8 23 0 3 68 -5 16 -3 17 15 7 20
-10 21 -9 16 13 -4 15 -2 28 6 33 27 16 155 -1 271 -38 58 -19 73 -20 108 -9
23 7 49 24 62 41 12 17 27 30 34 30 21 0 64 60 77 106 8 33 20 50 44 64 19 11
36 26 39 34 8 21 -34 130 -68 177 -26 37 -28 45 -28 139 0 83 -4 108 -21 143
-42 82 -90 143 -149 187 -32 25 -59 52 -59 60 -1 29 50 124 90 167 43 47 65
91 51 105 -5 5 -28 2 -52 -7 -24 -8 -44 -14 -46 -12 -2 1 11 24 27 51 31 49
33 91 6 108 -14 9 -14 9 -47 -1z m34 -766 c29 -29 33 -105 7 -144 -7 -11 -15
-10 -44 8 -45 28 -99 89 -91 102 11 18 68 49 91 49 12 0 28 -7 37 -15z"/>
</g>
</svg>
