<?xml version="1.0" standalone="no"?>
<!DOCTYPE svg PUBLIC "-//W3C//DTD SVG 20010904//EN"
 "http://www.w3.org/TR/2001/REC-SVG-20010904/DTD/svg10.dtd">
<svg version="1.0" xmlns="http://www.w3.org/2000/svg"
 width="1920.000000pt" height="1920.000000pt" viewBox="0 0 1920.000000 1920.000000"
 preserveAspectRatio="xMidYMid meet">
<metadata>
Created by potrace 1.16, written by Peter Selinger 2001-2019
</metadata>
<g transform="translate(0.000000,1920.000000) scale(0.100000,-0.100000)"
fill="#000000" stroke="none">
<path d="M4869 17558 c-121 -100 -442 -790 -528 -1137 -66 -264 -68 -443 -16
-1141 56 -738 107 -1103 173 -1245 16 -33 93 -146 172 -250 357 -473 437 -646
544 -1186 54 -269 66 -367 56 -442 -13 -89 -53 -210 -116 -354 -156 -353 -168
-431 -110 -698 14 -60 23 -111 21 -113 -9 -9 -267 85 -345 125 -47 24 -127 75
-178 113 -120 90 -236 160 -341 204 -245 106 -355 188 -492 374 -93 126 -128
162 -155 162 -35 0 -48 -55 -47 -205 3 -345 111 -729 268 -950 58 -81 161
-177 286 -266 211 -148 248 -192 268 -311 34 -213 148 -489 278 -676 187 -268
225 -325 261 -397 65 -130 76 -180 76 -340 -1 -101 -7 -169 -23 -245 -11 -58
-21 -128 -21 -155 0 -50 2 -52 101 -165 164 -186 236 -309 279 -479 19 -71 22
-105 18 -213 l-4 -128 -74 -146 -75 -147 0 -81 c1 -96 26 -155 97 -222 81 -77
236 -165 353 -200 33 -10 63 -20 67 -24 4 -3 -9 -48 -28 -100 -103 -270 -109
-429 -25 -607 44 -93 199 -313 373 -530 17 -22 -254 -136 -424 -179 -59 -14
-115 -33 -125 -40 -17 -13 -16 -16 12 -39 42 -35 189 -81 326 -101 88 -13 158
-15 306 -12 168 4 194 3 206 -11 17 -19 265 -400 374 -573 155 -246 253 -469
253 -572 0 -118 -150 -418 -359 -720 -26 -37 -41 -69 -41 -88 l0 -31 68 6
c171 16 389 131 591 311 46 41 88 73 92 70 14 -8 42 -109 42 -152 0 -35 -17
-78 -91 -221 -57 -112 -93 -196 -97 -226 -21 -136 53 -245 305 -447 52 -42
165 -142 250 -223 325 -309 397 -354 676 -424 249 -63 493 -88 593 -61 52 14
92 48 143 123 52 76 150 175 220 221 123 82 284 107 420 66 98 -30 205 -84
262 -132 25 -22 74 -79 108 -126 69 -98 73 -102 143 -139 92 -48 204 -44 480
18 251 57 414 114 511 179 64 43 221 179 354 305 211 200 462 451 480 481 11
17 22 55 26 85 8 71 -15 139 -111 322 -90 173 -95 195 -65 287 12 39 25 70 27
70 3 0 46 -36 96 -81 116 -102 228 -176 350 -234 98 -47 216 -78 271 -73 60 6
50 30 -96 245 -136 201 -268 489 -268 587 0 102 76 289 205 501 61 101 379
589 410 631 l24 31 189 -5 c214 -5 340 6 472 45 91 26 176 67 184 89 7 19 -15
29 -135 59 -110 28 -223 69 -353 129 -73 34 -77 38 -65 55 8 11 57 74 109 141
120 153 180 243 235 351 61 119 78 186 78 294 0 106 -17 183 -73 330 -22 59
-40 111 -40 115 0 4 24 12 54 19 107 24 315 140 380 211 61 68 89 135 90 216
1 68 -2 76 -61 190 -77 149 -96 219 -96 349 0 214 84 408 270 620 129 148 133
154 133 191 0 19 -11 100 -25 180 -54 314 -23 476 134 704 213 308 265 388
311 485 61 125 123 309 145 430 9 49 21 99 26 112 16 42 91 112 193 180 220
148 286 213 392 389 139 231 215 530 216 845 1 292 -30 301 -210 58 -81 -109
-184 -209 -263 -256 -30 -18 -119 -62 -198 -97 -152 -69 -230 -115 -381 -226
-52 -38 -131 -88 -175 -110 -79 -39 -323 -126 -331 -117 -2 2 7 55 20 118 14
63 28 152 31 199 8 107 -12 188 -91 373 -158 370 -179 513 -123 834 91 530
215 815 552 1269 159 215 209 307 231 421 38 204 119 1063 147 1573 13 238 3
403 -36 597 -37 183 -115 387 -291 765 -159 342 -214 432 -258 426 -30 -4 -32
-57 -7 -209 38 -234 45 -339 46 -664 0 -224 -4 -344 -13 -400 -32 -190 -134
-542 -225 -775 -111 -284 -325 -671 -559 -1010 -205 -296 -326 -425 -518 -552
-132 -87 -182 -113 -203 -105 -21 8 -77 86 -188 262 -193 307 -271 417 -332
466 -209 168 -742 374 -1602 618 -396 112 -831 227 -967 255 -110 23 -119 23
-199 10 -203 -35 -1236 -315 -1738 -470 -281 -88 -592 -211 -735 -291 -190
-106 -270 -190 -476 -495 -158 -235 -255 -322 -342 -304 -73 15 -280 176 -386
301 -247 293 -610 877 -767 1235 -147 336 -260 792 -271 1100 -11 284 16 648
60 817 33 127 37 164 21 190 -18 26 -25 28 -46 11z m-116 -522 c-26 -171 -25
-676 1 -816 38 -209 110 -448 217 -720 130 -332 438 -870 721 -1261 102 -141
128 -180 128 -195 0 -17 -68 10 -131 52 -178 118 -420 412 -550 667 -30 59
-57 107 -61 107 -16 0 -7 -46 27 -129 42 -106 73 -164 183 -349 47 -78 82
-145 79 -148 -13 -13 -105 52 -178 125 -70 71 -82 90 -170 266 -106 211 -157
336 -219 533 -25 80 -46 130 -52 126 -44 -28 161 -657 280 -858 112 -188 338
-372 717 -581 296 -164 336 -175 670 -183 l261 -7 58 -35 c77 -46 157 -128
194 -199 39 -73 89 -264 147 -561 88 -457 111 -659 85 -749 -12 -45 -44 -77
-102 -107 -73 -37 -185 -30 -240 16 l-23 19 48 1 c32 0 47 4 47 13 0 7 -57 41
-127 74 -144 69 -252 138 -390 251 -52 42 -135 110 -184 150 -82 66 -119 86
-119 63 0 -10 155 -197 219 -265 25 -26 75 -70 110 -97 103 -78 49 -57 -93 38
-152 101 -276 216 -355 328 -52 74 -56 78 -59 52 -4 -35 21 -77 147 -247 93
-124 179 -265 168 -276 -2 -2 -42 35 -88 83 -104 108 -208 262 -375 556 -70
125 -132 223 -136 219 -20 -20 132 -425 238 -636 36 -71 63 -133 61 -139 -2
-6 -40 46 -86 114 -92 138 -205 361 -371 734 -174 391 -265 557 -478 870 -167
248 -171 245 -20 -13 316 -541 499 -1069 567 -1642 12 -96 24 -190 27 -208 l5
-33 35 30 c19 17 38 31 42 31 19 -1 34 -23 77 -115 25 -54 57 -114 71 -132 45
-59 164 -127 164 -94 0 5 -22 36 -49 68 -58 70 -111 151 -111 172 0 8 56 -41
124 -109 176 -176 261 -227 418 -251 101 -16 238 2 238 31 0 6 -35 10 -90 10
-126 0 -184 23 -267 107 -35 36 -62 67 -60 69 2 2 48 -9 101 -26 136 -41 216
-54 302 -46 88 8 177 33 172 48 -2 6 -23 17 -46 23 -47 15 -150 77 -135 82 6
2 64 -10 129 -26 65 -16 120 -29 122 -27 1 2 -32 29 -75 60 -43 31 -73 56 -66
56 20 0 186 -61 226 -83 86 -48 56 -110 -140 -292 -160 -150 -214 -183 -306
-192 -81 -7 -132 9 -252 82 -49 30 -153 82 -230 115 -214 93 -268 141 -301
270 -9 36 -17 66 -19 68 -1 1 -25 -2 -53 -8 -38 -9 -56 -8 -72 0 -39 21 -78
125 -100 265 -65 406 -98 553 -168 750 -104 291 -286 623 -502 915 -151 204
-156 214 -179 358 -26 156 -85 682 -108 957 -23 269 -25 910 -4 1055 36 252
141 574 292 895 33 69 33 70 37 36 2 -19 -5 -89 -15 -155z m9832 -166 c84
-203 143 -408 172 -598 24 -152 24 -742 0 -1042 -18 -222 -75 -753 -103 -968
-19 -141 -32 -168 -154 -323 -145 -183 -296 -423 -405 -639 -127 -252 -226
-595 -280 -971 -28 -196 -46 -265 -81 -326 -29 -50 -47 -57 -109 -43 -26 6
-49 9 -51 7 -3 -2 -11 -31 -19 -63 -20 -77 -61 -142 -110 -176 -22 -15 -116
-63 -210 -106 -93 -44 -203 -100 -243 -125 -122 -75 -231 -86 -330 -32 -63 34
-254 205 -326 292 -48 58 -56 73 -54 103 3 29 10 38 43 57 37 21 208 83 229
83 5 0 -26 -25 -68 -56 -43 -31 -76 -58 -74 -60 2 -1 55 10 118 26 63 16 122
30 129 30 26 0 -71 -64 -123 -81 -28 -10 -52 -22 -54 -28 -5 -15 92 -41 178
-48 85 -6 189 11 310 52 40 14 75 23 78 20 7 -7 -63 -84 -106 -116 -61 -45
-113 -59 -218 -59 -52 0 -94 -4 -94 -9 0 -41 231 -49 338 -12 112 38 172 80
309 215 73 71 135 127 138 125 9 -9 -37 -84 -96 -156 -32 -40 -59 -77 -59 -83
0 -38 127 41 173 108 15 21 43 77 63 123 52 124 60 129 119 78 19 -17 35 -27
35 -23 0 35 44 371 61 464 41 233 134 557 231 800 68 172 198 433 313 629 53
90 95 165 93 166 -5 6 -223 -316 -295 -436 -84 -140 -232 -431 -343 -674 -144
-316 -267 -557 -344 -675 -42 -63 -76 -108 -76 -100 0 9 23 60 51 114 62 119
118 251 189 445 47 130 74 237 56 219 -4 -3 -74 -121 -154 -262 -81 -141 -176
-297 -212 -348 -77 -110 -235 -277 -224 -238 11 44 60 121 173 275 116 158
167 240 153 249 -13 8 -24 -4 -89 -89 -102 -134 -241 -254 -415 -357 -76 -45
-103 -47 -36 -3 58 39 182 165 273 279 41 52 75 97 75 100 0 3 -6 6 -14 6 -16
0 -72 -42 -236 -178 -163 -135 -296 -223 -447 -297 -68 -32 -123 -65 -123 -72
0 -9 15 -13 48 -13 l47 -1 -23 -19 c-61 -51 -195 -53 -264 -4 -74 52 -83 72
-86 194 -4 122 32 364 114 763 52 253 84 370 122 447 33 67 118 153 197 200
l59 35 256 6 c312 7 336 13 555 123 383 193 665 398 786 570 68 95 116 193
177 356 92 248 152 462 152 543 0 55 -11 39 -44 -68 -100 -322 -272 -693 -375
-807 -42 -47 -174 -148 -193 -148 -16 0 -7 19 79 161 133 222 229 437 205 461
-7 7 -28 -24 -67 -103 -100 -199 -238 -384 -408 -547 -87 -83 -191 -158 -235
-169 -52 -13 -44 3 98 202 146 204 268 397 455 720 121 208 170 308 240 485
122 310 204 592 241 835 25 163 26 593 1 770 -9 65 -17 126 -16 135 1 19 96
-178 154 -320z m-5175 -1548 c0 -5 -37 -35 -82 -67 -83 -59 -84 -60 -463 -177
-1220 -379 -1516 -480 -1729 -591 -169 -87 -234 -154 -414 -425 -52 -78 -97
-140 -100 -138 -5 6 112 230 191 364 71 120 175 237 243 274 89 48 467 205
630 261 88 30 265 87 392 127 255 78 1300 379 1320 380 6 0 12 -4 12 -8z m949
-153 c950 -268 1155 -335 1591 -522 210 -90 217 -93 282 -159 38 -37 93 -105
123 -152 56 -86 231 -416 221 -416 -3 0 -51 68 -106 151 -188 282 -243 336
-453 438 -224 109 -460 188 -1772 592 -279 86 -281 87 -367 155 -45 35 -75 64
-68 64 7 0 254 -68 549 -151z m-689 70 c19 -5 64 -26 100 -47 201 -117 399
-305 560 -532 250 -351 474 -920 495 -1256 l5 -79 -15 60 c-49 209 -127 433
-220 631 -101 216 -273 496 -403 658 -200 250 -470 466 -579 466 -127 -1 -357
-170 -537 -395 -144 -180 -372 -511 -438 -635 -80 -151 -193 -463 -239 -660
-12 -52 -26 -99 -31 -105 -7 -7 -8 -3 -5 10 3 11 9 49 12 85 42 406 308 1009
596 1355 175 209 458 432 579 455 35 7 56 5 120 -11z m-910 -539 c0 -35 -209
-319 -288 -390 -82 -75 -216 -165 -384 -259 -420 -234 -426 -240 -717 -675
l-166 -248 -3 52 c-6 102 45 208 268 550 69 107 130 202 135 210 5 8 -59 -51
-143 -131 -167 -161 -217 -194 -307 -204 l-60 -6 35 28 c69 54 126 119 159
183 25 47 29 61 15 49 -10 -9 -55 -46 -99 -84 -44 -37 -94 -74 -112 -81 -38
-16 -79 -18 -88 -4 -3 6 53 81 126 168 198 234 258 299 321 347 72 54 257 149
413 210 140 56 852 294 878 295 9 0 17 -5 17 -10z m2020 -96 c701 -228 889
-315 1056 -486 107 -109 365 -418 358 -429 -9 -15 -56 -10 -98 11 -23 11 -79
54 -126 94 -47 41 -87 73 -89 71 -2 -3 15 -36 38 -74 36 -61 141 -171 163
-171 4 0 8 -5 8 -11 0 -16 -97 -1 -149 23 -26 13 -104 80 -197 171 -85 82
-154 147 -154 144 0 -3 64 -103 142 -224 214 -328 276 -459 266 -563 -3 -33
-10 -25 -140 172 -174 264 -287 416 -345 467 -48 43 -231 155 -423 261 -162
89 -327 192 -378 236 -48 40 -105 122 -205 292 -69 115 -72 122 -60 122 4 0
154 -48 333 -106z m-1032 -616 c196 -330 279 -480 411 -748 140 -283 181 -398
188 -527 l6 -92 -76 -158 c-76 -158 -127 -309 -164 -483 -15 -69 -18 -129 -17
-321 1 -130 4 -249 8 -265 5 -19 4 -25 -2 -19 -27 28 -42 145 -42 331 0 340
46 566 173 848 36 82 39 94 33 148 -12 118 -78 290 -195 513 -96 182 -454 804
-465 807 -12 4 -443 -741 -530 -917 -88 -180 -135 -312 -143 -403 -5 -63 -2
-72 41 -171 131 -292 192 -625 168 -909 -11 -127 -32 -235 -47 -251 -4 -3 -4
21 1 54 4 33 7 152 8 265 0 177 -3 219 -23 308 -38 173 -89 320 -163 471 l-71
144 6 86 c10 158 78 330 316 796 175 344 402 725 432 725 4 0 71 -105 147
-232z m-1582 -95 c-34 -64 -42 -72 -134 -130 -215 -137 -303 -226 -589 -593
-83 -107 -168 -213 -188 -235 l-36 -40 6 30 c9 42 67 139 216 360 196 289 284
402 362 461 91 68 380 234 391 224 4 -4 -8 -39 -28 -77z m170 -44 c-12 -68
-32 -142 -44 -165 -26 -50 -81 -240 -115 -394 -41 -184 -50 -276 -44 -474 6
-197 9 -219 97 -571 61 -245 87 -370 94 -455 5 -61 4 -58 -18 40 -25 109 -69
264 -131 460 -63 199 -106 381 -116 495 -28 296 66 774 208 1060 35 70 82 140
89 133 2 -2 -7 -60 -20 -129z m2588 11 c73 -139 142 -362 188 -609 19 -97 22
-152 23 -336 0 -256 1 -250 -135 -702 -88 -288 -129 -465 -131 -553 0 -30 -4
-64 -9 -75 -6 -12 -7 18 -4 80 5 115 46 326 109 570 96 375 100 396 100 635
-1 164 -5 236 -18 305 -30 153 -96 396 -133 487 -28 71 -75 270 -74 312 1 19
49 -46 84 -114z m127 89 c89 -45 302 -171 349 -206 74 -55 194 -212 414 -543
104 -156 175 -284 164 -296 -9 -9 -16 0 -188 221 -316 410 -412 506 -643 651
-75 46 -80 53 -112 122 -19 39 -32 72 -29 72 3 0 23 -9 45 -21z m-1427 -726
c15 -43 70 -167 123 -275 l96 -198 5 -92 c6 -116 -7 -170 -89 -366 -84 -203
-139 -369 -146 -448 -7 -78 -12 -72 -47 61 -34 131 -82 273 -141 415 -57 137
-63 156 -74 238 -16 109 0 176 88 361 44 91 96 214 116 274 21 59 39 107 40
107 1 0 15 -35 29 -77z m-1606 -830 c20 -39 103 -343 111 -408 9 -78 1 -162
-22 -215 -8 -19 -38 -64 -66 -99 -100 -123 -152 -267 -222 -612 -80 -399 -105
-485 -183 -622 -136 -239 -382 -436 -610 -490 -85 -20 -325 -14 -443 12 -227
48 -447 143 -553 238 -78 71 -238 257 -297 345 -90 137 -98 195 -46 361 21 66
26 76 41 68 28 -15 84 -70 178 -175 200 -222 414 -342 646 -361 191 -16 468
122 674 337 226 235 326 466 394 907 33 217 86 346 217 525 85 116 156 205
165 205 4 1 11 -7 16 -16z m3284 -120 c122 -162 157 -215 198 -305 39 -88 65
-187 85 -328 32 -220 122 -513 198 -642 38 -65 126 -162 240 -266 177 -161
311 -241 478 -284 81 -21 93 -21 175 -10 241 35 425 144 630 374 54 61 117
124 138 140 l40 28 13 -31 c24 -57 44 -151 45 -209 1 -47 -5 -69 -36 -128 -47
-89 -178 -252 -296 -370 -78 -78 -108 -99 -200 -147 -335 -171 -735 -212 -978
-100 -140 65 -339 238 -425 368 -108 163 -142 263 -218 645 -79 397 -127 533
-231 662 -73 89 -90 135 -90 238 0 92 8 132 74 352 39 132 46 150 52 150 2 0
50 -62 108 -137z m-5923 -353 c5 -17 20 -44 31 -60 l21 -29 -35 -48 c-18 -26
-52 -84 -74 -128 -95 -192 -124 -329 -103 -497 29 -234 25 -238 -34 -38 -29
97 -38 148 -42 230 -5 100 -4 110 30 210 19 58 60 159 91 225 84 178 95 191
115 135z m8528 -81 c62 -124 126 -283 143 -358 20 -86 7 -205 -39 -364 -22
-77 -43 -142 -47 -145 -7 -7 0 57 16 143 15 83 12 255 -6 316 -22 76 -116 269
-164 341 -23 33 -40 63 -38 66 29 62 62 113 71 109 7 -2 35 -50 64 -108z
m-10232 -159 c82 -95 208 -221 254 -253 24 -16 108 -58 185 -91 224 -98 222
-96 393 -237 89 -74 137 -97 318 -154 228 -71 277 -98 394 -215 161 -161 249
-291 221 -326 -29 -34 -106 0 -322 142 -71 46 -128 80 -128 76 0 -4 32 -39 71
-77 76 -75 116 -125 101 -125 -5 0 -87 56 -181 124 -192 140 -327 222 -581
356 -96 50 -225 125 -285 166 -61 41 -116 74 -123 74 -26 0 -9 -22 73 -93 132
-116 272 -220 441 -328 86 -55 193 -128 238 -162 104 -79 254 -230 285 -287
l25 -44 -31 24 c-16 14 -63 54 -104 89 -104 91 -267 194 -364 231 -52 20 -31
-10 42 -61 188 -130 355 -292 464 -451 33 -48 58 -88 56 -88 -3 0 -47 25 -98
55 -85 50 -129 67 -129 48 0 -5 30 -37 66 -73 37 -36 83 -90 103 -120 20 -31
81 -109 136 -175 146 -178 224 -304 301 -487 40 -93 73 -158 81 -158 10 0 13
18 13 73 0 77 -23 185 -64 306 -14 41 -24 76 -22 78 18 18 108 -239 150 -427
22 -102 40 -237 62 -465 6 -68 6 -69 20 -42 18 34 33 146 35 257 1 115 16 68
29 -97 18 -213 -10 -396 -87 -567 -52 -116 -52 -128 3 -327 62 -224 63 -273
10 -483 -20 -81 -35 -150 -33 -152 14 -14 83 106 147 251 l21 50 20 -24 c27
-33 24 -59 -21 -179 -53 -140 -106 -227 -180 -296 -34 -31 -59 -56 -55 -56 3
0 35 14 72 30 66 30 101 55 203 149 86 78 128 89 151 37 19 -40 -5 -80 -92
-151 -43 -36 -96 -91 -117 -122 -71 -104 -97 -115 -228 -90 -113 22 -191 54
-240 99 -45 41 -94 127 -94 162 0 12 27 74 60 139 82 165 94 226 87 436 -4 91
-13 198 -21 236 -29 142 -111 283 -249 433 -114 122 -122 153 -90 313 24 123
21 330 -6 434 -33 123 -74 200 -244 452 -86 127 -176 274 -201 325 -55 113
-98 260 -94 317 l3 42 95 -112 c170 -201 207 -261 291 -471 58 -147 113 -246
213 -382 50 -68 113 -171 149 -243 54 -109 62 -132 65 -194 8 -128 -52 -219
-143 -219 -51 0 -67 -16 -30 -30 50 -19 108 -12 157 19 50 32 78 67 110 138
32 71 30 195 -5 285 -37 97 -111 226 -184 321 -111 144 -146 199 -198 312
-118 257 -221 409 -405 599 -147 152 -249 238 -434 366 -228 158 -312 245
-400 410 -81 154 -124 296 -171 561 -13 79 -28 158 -31 174 -7 35 -5 34 71
-55z m11907 3 c-5 -111 -39 -293 -73 -398 -105 -328 -229 -500 -488 -674 -377
-254 -666 -564 -813 -871 -112 -235 -131 -269 -200 -355 -126 -160 -232 -347
-257 -455 -51 -222 99 -431 277 -384 38 11 27 34 -18 34 -21 0 -50 5 -64 11
-63 29 -104 144 -86 239 17 92 150 329 272 488 56 73 99 159 179 356 29 70 73
160 99 200 44 67 154 204 234 291 l37 40 -5 -65 c-6 -78 -52 -216 -107 -324
-42 -82 -69 -125 -231 -363 -165 -241 -213 -359 -224 -553 -5 -79 -2 -133 12
-220 23 -141 22 -216 -5 -267 -11 -21 -52 -74 -91 -118 -135 -152 -223 -330
-250 -509 -17 -115 -15 -318 5 -396 9 -36 41 -114 71 -174 33 -64 56 -123 56
-141 0 -63 -65 -158 -136 -200 -58 -34 -188 -67 -267 -69 -78 -1 -94 10 -160
106 -22 32 -71 82 -109 113 -103 82 -121 117 -82 165 27 34 56 22 148 -61 100
-89 148 -123 214 -149 63 -25 74 -21 26 9 -89 55 -212 277 -240 432 -7 37 6
89 22 89 5 0 30 -46 56 -102 44 -96 112 -205 122 -195 2 2 -12 66 -32 143 -54
204 -53 281 5 479 56 192 57 232 7 340 -80 173 -108 367 -86 595 15 161 29
187 30 55 0 -108 11 -192 31 -240 12 -30 12 -29 20 30 4 33 12 116 19 185 24
260 137 682 191 715 8 6 11 4 7 -6 -3 -8 -22 -66 -43 -129 -32 -98 -38 -132
-42 -225 -4 -110 -4 -110 15 -88 11 13 34 58 52 100 93 228 148 321 316 529
67 83 133 168 146 190 14 21 58 74 98 117 97 104 62 100 -124 -13 l-39 -24 38
60 c97 152 264 322 440 449 134 96 129 91 117 99 -11 7 -150 -60 -229 -110
-60 -38 -128 -92 -233 -184 l-63 -54 23 44 c27 54 187 215 290 292 41 31 129
91 195 133 176 112 291 196 432 313 117 98 143 125 130 138 -2 3 -40 -19 -83
-48 -117 -79 -164 -107 -355 -209 -286 -151 -386 -214 -639 -399 -52 -38 -102
-70 -110 -70 -8 0 19 35 61 78 88 91 121 129 99 117 -8 -5 -70 -44 -138 -87
-143 -92 -227 -138 -252 -138 -30 0 -50 11 -50 27 0 53 153 254 275 359 86 75
135 99 338 165 204 67 263 98 366 187 97 86 148 117 291 182 154 69 195 92
297 169 88 66 237 217 248 250 13 41 21 20 17 -46z m-7347 -52 c0 -57 -2 -63
-71 -163 -39 -56 -81 -122 -93 -145 -30 -60 -56 -177 -91 -414 -39 -264 -58
-337 -120 -458 -171 -333 -400 -566 -663 -673 -131 -53 -225 -70 -397 -70
-108 0 -180 5 -235 17 -153 32 -397 135 -525 221 -78 52 -279 238 -268 249 10
10 39 -9 182 -117 260 -197 470 -268 791 -268 346 0 527 66 742 273 95 92 171
187 242 305 101 168 145 312 205 672 68 405 81 443 208 576 81 85 92 85 93 -5z
m2930 -144 c40 -83 63 -178 105 -446 50 -324 86 -449 177 -614 65 -118 125
-199 223 -301 154 -161 266 -238 415 -286 135 -44 547 -37 732 11 164 43 263
97 452 246 175 138 210 137 68 -2 -152 -147 -286 -228 -528 -318 -149 -56
-231 -69 -414 -69 -138 0 -173 4 -256 25 -341 89 -619 344 -813 747 -54 111
-85 239 -116 475 -36 277 -63 359 -157 486 -73 99 -93 139 -93 187 0 24 5 53
12 65 10 20 14 18 84 -56 48 -51 86 -103 109 -150z m-1481 -509 c158 -382 212
-480 293 -529 21 -12 40 -24 42 -25 2 -2 -34 -40 -80 -86 -136 -134 -238 -336
-302 -595 -22 -86 -34 -119 -39 -107 -4 11 -25 82 -48 159 -27 94 -64 187
-111 284 -62 127 -79 153 -142 216 -40 39 -84 80 -100 91 l-27 19 72 75 c101
103 175 253 338 684 6 16 12 27 14 25 2 -2 43 -97 90 -211z m3721 -1287 c-58
-55 -1085 -833 -1245 -943 -128 -89 -322 -198 -427 -242 -250 -105 -564 -157
-943 -157 -235 0 -323 12 -488 67 -259 87 -386 192 -496 413 -40 78 -43 107
-5 44 66 -111 163 -194 320 -277 140 -73 193 -85 502 -107 413 -31 936 62
1289 229 126 59 286 158 658 408 346 231 640 437 738 515 40 33 81 59 90 59
10 0 12 -3 7 -9z m-7415 -126 c702 -506 1173 -806 1417 -904 201 -81 536 -151
833 -172 223 -17 579 8 705 48 123 39 279 136 374 233 55 56 62 60 46 30 -35
-69 -119 -182 -169 -226 -89 -81 -294 -165 -490 -201 -118 -22 -564 -25 -701
-4 -234 35 -361 69 -534 142 -295 125 -500 264 -1286 874 -413 321 -492 394
-195 180z m-199 -99 c76 -198 158 -535 184 -755 28 -233 17 -401 -36 -557 -42
-124 -8 -267 126 -537 123 -244 281 -472 449 -646 181 -186 309 -258 688 -387
153 -52 242 -71 373 -80 55 -3 106 -11 114 -17 13 -12 26 -39 37 -82 6 -24 4
-25 -35 -25 -62 0 -323 55 -450 96 -227 71 -508 202 -658 306 -113 78 -240
222 -395 448 -162 234 -343 567 -371 682 -25 99 -22 137 23 256 98 262 101
414 20 912 -34 204 -79 389 -109 448 -24 48 -27 66 -6 38 8 -11 29 -56 46
-100z m7655 62 c-34 -79 -72 -232 -105 -428 -84 -500 -80 -686 18 -934 47
-116 49 -149 16 -248 -63 -189 -167 -390 -322 -621 -179 -266 -355 -467 -487
-555 -120 -79 -468 -226 -678 -286 -66 -19 -382 -76 -420 -76 -13 0 31 95 48
107 11 6 62 15 114 18 164 11 328 54 600 157 200 75 251 108 390 248 237 238
430 517 563 813 56 126 97 263 97 328 0 20 -14 81 -32 135 -32 99 -32 100 -32
309 0 174 4 232 22 340 41 232 156 635 204 713 29 47 30 39 4 -20z m-6387
-925 c317 -202 583 -298 964 -348 65 -8 135 -15 155 -16 78 -1 81 -11 16 -61
-134 -103 -228 -133 -419 -133 -119 0 -151 4 -215 24 -217 68 -397 203 -524
394 -56 84 -126 234 -103 220 7 -4 63 -40 126 -80z m5211 77 c0 -27 -43 -117
-95 -196 -132 -202 -317 -347 -530 -414 -97 -30 -273 -38 -375 -16 -90 19
-218 80 -280 135 l-45 39 35 5 c19 3 98 13 176 21 385 44 667 145 966 346 134
91 148 98 148 80z m-3060 -1084 c58 -135 175 -493 194 -595 18 -95 21 -268 5
-324 -21 -75 -122 -146 -209 -147 -64 0 -136 37 -333 171 -333 227 -396 261
-508 285 -240 50 -453 -116 -529 -411 -11 -43 -22 -80 -24 -82 -10 -11 -15
155 -6 213 16 97 54 168 135 249 147 148 307 185 510 121 90 -29 178 -80 362
-213 326 -235 387 -270 446 -258 87 19 117 73 117 212 0 164 -55 413 -159 721
-32 96 -56 170 -51 165 4 -4 26 -52 50 -107z m775 -63 c-86 -252 -155 -557
-155 -682 0 -24 5 -73 11 -108 14 -77 44 -118 100 -133 62 -17 113 10 339 180
242 182 428 290 540 311 107 20 241 -8 336 -69 155 -100 239 -214 245 -332 4
-88 0 -214 -8 -207 -4 4 -15 40 -25 80 -75 298 -287 463 -530 412 -102 -21
-150 -47 -417 -226 -369 -246 -408 -261 -521 -201 -82 42 -110 84 -121 178
-14 130 4 261 67 464 55 176 170 477 180 468 2 -2 -17 -63 -41 -135z m-3795
-571 c14 -5 50 -29 79 -52 l54 -43 -84 -24 c-113 -33 -172 -67 -234 -135 -96
-107 -214 -351 -236 -487 -23 -150 1 -209 223 -569 66 -106 118 -196 115 -198
-6 -6 -235 295 -335 440 -125 179 -136 280 -60 511 57 171 219 454 292 510 80
61 122 71 186 47z m6919 3 c70 -24 101 -53 169 -159 155 -238 241 -444 250
-597 9 -159 -12 -202 -274 -552 -209 -279 -217 -278 -41 5 63 101 136 225 163
277 l49 94 0 126 c0 125 -1 127 -43 231 -46 116 -139 290 -174 328 -27 28
-178 103 -260 128 -32 10 -58 21 -58 26 0 4 22 31 48 58 42 44 53 50 89 50 22
0 59 -7 82 -15z m-5948 -625 c75 -39 75 -61 -1 -217 -43 -88 -159 -253 -178
-253 -4 0 -13 -9 -20 -21 -19 -31 102 55 163 116 28 28 76 87 108 133 92 131
97 82 7 -68 -59 -99 -164 -224 -249 -297 -42 -36 -137 -105 -211 -154 -182
-119 -188 -124 -108 -95 188 69 381 199 547 370 40 42 77 76 82 76 37 0 -58
-122 -180 -230 -168 -151 -311 -236 -650 -386 -85 -37 -149 -70 -144 -71 22
-8 276 57 366 93 244 96 438 225 632 419 147 147 182 196 242 337 39 92 46
102 63 96 21 -7 -87 -199 -186 -333 -127 -169 -318 -360 -444 -444 -231 -152
-487 -240 -833 -286 -183 -24 -563 -18 -554 9 2 6 48 22 103 37 240 63 466
189 737 411 239 196 456 518 507 753 17 80 12 78 92 49 40 -15 89 -35 109 -44z
m5078 -12 c29 -107 133 -320 209 -427 133 -185 305 -344 547 -504 186 -123
310 -180 484 -225 58 -15 106 -32 108 -38 9 -26 -363 -33 -547 -10 -363 46
-646 146 -875 311 -160 114 -340 310 -488 529 -61 92 -123 214 -112 224 11 11
34 -24 65 -97 49 -121 127 -226 263 -357 68 -65 165 -149 217 -186 114 -80
290 -173 420 -221 94 -35 322 -91 342 -85 6 2 -54 32 -133 67 -180 79 -379
179 -453 226 -127 81 -354 294 -392 367 -24 47 8 35 59 -22 141 -157 477 -385
612 -416 42 -9 33 -3 -150 118 -181 120 -287 213 -374 329 -101 133 -173 269
-143 269 5 0 38 -41 73 -91 34 -50 86 -111 114 -136 50 -46 165 -128 165 -119
0 3 -27 36 -61 73 -127 142 -208 284 -209 364 0 29 6 40 28 55 36 24 172 82
193 83 13 1 22 -20 38 -81z m-4990 -1288 c38 -22 106 -56 152 -75 46 -20 92
-45 101 -58 57 -74 20 -315 -96 -621 -31 -81 -56 -152 -56 -159 1 -22 42 37
85 123 54 108 85 195 141 394 49 175 67 216 91 216 34 0 -3 -212 -79 -450 -42
-131 -94 -261 -178 -440 -39 -84 -69 -154 -67 -156 5 -5 75 85 112 146 54 86
166 322 221 463 80 207 108 270 122 275 20 6 14 -61 -14 -149 -57 -181 -219
-538 -315 -696 -162 -265 -473 -567 -704 -684 -56 -28 -109 -50 -117 -48 -12
3 3 31 62 114 283 394 417 776 470 1335 11 107 6 449 -6 493 -7 24 -1 22 75
-23z m4760 -192 c0 -178 5 -270 20 -389 69 -524 195 -858 467 -1236 87 -121
81 -128 -50 -62 -263 134 -563 430 -740 732 -95 161 -254 521 -300 676 -17 58
-21 131 -8 131 12 0 48 -79 97 -210 78 -208 151 -365 240 -515 46 -79 115
-169 122 -161 2 2 -11 35 -30 72 -159 318 -289 699 -304 892 -5 73 -4 82 11
82 22 0 38 -39 82 -198 53 -190 90 -296 145 -408 43 -88 89 -155 89 -128 0 5
-25 74 -56 154 -70 185 -112 345 -120 463 -10 147 10 184 122 221 28 9 86 39
130 66 43 27 80 49 81 50 2 0 2 -105 2 -232z m715 100 c-8 -14 -525 -820 -531
-827 -7 -10 -14 9 -20 56 l-5 50 148 204 c156 216 288 390 361 477 42 50 62
66 47 40z m-6168 -90 c133 -158 395 -508 468 -627 9 -14 -2 -111 -12 -111 -4
0 -32 40 -64 88 -397 613 -473 732 -466 732 3 0 36 -37 74 -82z m1534 -111
c161 -124 187 -184 136 -318 l-24 -64 -59 60 c-101 106 -172 248 -173 348 0
32 4 57 9 55 5 -1 55 -38 111 -81z m3144 65 c25 -78 -104 -337 -206 -414 l-36
-28 -26 78 c-37 111 -24 153 76 248 47 46 165 134 178 134 5 0 11 -8 14 -18z
m-2601 -466 c70 -43 127 -81 127 -85 0 -12 -125 -194 -136 -198 -7 -2 -21 15
-32 39 -19 39 -132 335 -132 346 0 2 10 -2 23 -10 12 -8 79 -49 150 -92z
m2101 77 c-21 -93 -148 -368 -165 -358 -14 9 -129 182 -129 195 0 13 267 190
287 190 9 0 12 -8 7 -27z m-1423 -237 c62 -26 119 -62 119 -76 0 -15 -89 -129
-114 -145 -22 -15 -27 -15 -54 -1 -69 36 -244 207 -227 224 2 3 28 11 57 18
68 17 144 10 219 -20z m782 10 c32 -7 60 -16 64 -19 11 -11 -71 -99 -134 -144
-69 -49 -134 -65 -163 -41 -36 31 -80 90 -80 108 0 26 62 66 137 90 70 23 100
24 176 6z m-2261 -188 c106 -68 336 -306 427 -442 39 -59 46 -76 44 -113 -3
-80 -7 -77 -87 61 -50 87 -139 196 -150 185 -4 -4 20 -55 53 -115 56 -99 109
-229 99 -240 -3 -2 -31 47 -64 108 -76 144 -178 297 -250 373 l-56 60 70 -135
c86 -167 132 -290 166 -441 31 -139 32 -146 10 -128 -26 22 -52 83 -83 197
-17 60 -41 139 -55 176 -43 113 -170 318 -241 386 -40 38 -45 70 -16 99 25 25
57 17 133 -31z m3677 21 c16 -45 16 -43 -40 -105 -100 -110 -218 -324 -264
-479 -13 -44 -33 -111 -44 -150 -21 -70 -54 -126 -66 -113 -9 9 29 189 62 292
13 43 62 153 109 245 l84 166 -61 -65 c-76 -82 -149 -191 -237 -353 -39 -71
-73 -131 -76 -134 -9 -9 15 70 40 129 13 31 46 95 73 142 27 47 46 86 41 86
-18 0 -104 -108 -157 -197 -30 -51 -59 -93 -64 -93 -4 0 -11 16 -15 35 -9 49
29 123 118 227 152 178 272 289 393 362 74 44 90 45 104 5z m-2083 -287 c34
-59 60 -109 58 -111 -6 -6 -288 -49 -293 -44 -7 6 90 201 122 246 22 29 32 36
40 28 7 -7 40 -60 73 -119z m468 95 c29 -37 101 -186 112 -231 6 -24 4 -28
-12 -23 -11 3 -68 13 -129 22 -177 25 -163 13 -114 103 52 95 97 162 109 162
5 0 20 -15 34 -33z m-854 -302 c0 -6 -32 -21 -72 -35 -39 -13 -97 -40 -127
-60 -31 -20 -62 -40 -70 -44 -11 -7 -12 7 -7 85 9 120 21 185 53 283 l26 79
98 -149 c54 -82 98 -154 99 -159z m1333 228 c42 -113 48 -138 57 -255 4 -62 7
-114 5 -116 -1 -1 -38 19 -81 45 -70 43 -96 55 -180 89 -21 9 -17 16 70 156
50 82 94 148 97 148 3 0 17 -30 32 -67z m-1900 -196 c48 -77 103 -139 176
-199 l43 -37 -83 -61 c-46 -34 -111 -75 -144 -91 l-60 -29 -13 38 c-8 20 -17
83 -19 140 -5 91 -2 116 22 208 15 57 29 104 30 104 2 0 23 -33 48 -73z m2315
40 c41 -84 53 -274 26 -386 -9 -36 -17 -67 -19 -69 -7 -8 -93 39 -175 97 -51
36 -98 69 -103 72 -5 3 31 46 80 95 63 63 100 109 124 156 19 38 39 66 44 65
6 -2 16 -15 23 -30z m-3320 -152 c36 -87 37 -94 37 -215 0 -123 -1 -126 -36
-200 -20 -41 -59 -105 -88 -142 -77 -101 -79 -108 -47 -169 39 -76 105 -172
203 -293 142 -177 142 -178 -11 -23 -152 155 -258 279 -283 333 -22 46 -11 90
49 181 117 179 149 299 114 423 -44 153 -45 183 -4 236 l23 29 3 -35 c2 -19
20 -75 40 -125z m4358 68 c5 -26 0 -57 -16 -107 -28 -89 -36 -176 -21 -247 12
-57 64 -165 113 -237 46 -67 71 -130 63 -160 -11 -44 -108 -163 -257 -315 -92
-93 -124 -121 -93 -82 209 268 282 385 266 427 -5 13 -31 53 -58 89 -155 202
-178 356 -87 577 19 45 34 97 34 115 l1 32 24 -28 c13 -15 27 -44 31 -64z
m-1888 -21 c204 -45 375 -120 527 -232 272 -201 323 -225 475 -225 117 1 133
6 234 82 32 24 61 41 64 38 11 -11 -84 -96 -133 -121 -69 -33 -188 -57 -250
-49 -87 10 -138 33 -271 121 -155 103 -387 218 -544 270 -114 37 -117 38 -304
42 -193 4 -365 -8 -491 -34 -187 -39 -411 -139 -620 -275 -60 -40 -139 -85
-174 -102 -60 -28 -68 -30 -155 -24 -108 8 -185 28 -246 68 -48 30 -105 95
-92 103 4 2 40 -20 80 -49 85 -62 145 -79 256 -73 120 8 183 40 426 218 190
140 364 209 645 256 121 20 452 12 573 -14z"/>
<path d="M6267 12594 c74 -94 270 -259 427 -359 102 -65 193 -87 285 -69 24 5
31 12 31 30 0 30 -29 45 -145 73 -121 30 -198 70 -405 213 -248 170 -231 161
-193 112z"/>
<path d="M6540 12560 c0 -13 92 -87 163 -129 90 -55 176 -83 246 -79 55 3 56
4 59 35 4 42 -22 55 -153 77 -64 11 -139 32 -207 60 -60 24 -108 40 -108 36z"/>
<path d="M12889 12584 c-66 -59 -261 -187 -372 -245 -49 -26 -129 -56 -197
-74 -96 -25 -116 -34 -127 -55 -18 -37 -2 -45 95 -45 96 0 132 14 257 98 229
155 430 336 402 364 -3 2 -29 -17 -58 -43z"/>
<path d="M12580 12539 c-92 -43 -163 -65 -255 -79 -119 -18 -159 -45 -134 -92
10 -19 18 -20 86 -15 86 6 192 51 280 117 41 32 104 100 91 100 -2 0 -32 -14
-68 -31z"/>
<path d="M5890 10553 c0 -26 104 -165 171 -229 125 -119 239 -184 452 -257
l122 -42 160 1 c122 0 177 4 230 18 203 53 359 171 539 405 42 55 76 102 76
105 0 26 -50 -12 -154 -116 -67 -68 -142 -139 -166 -160 -66 -54 -179 -106
-288 -134 -87 -23 -112 -25 -247 -21 -144 3 -155 5 -272 45 -232 78 -389 169
-535 310 -49 47 -88 80 -88 75z"/>
<path d="M13229 10494 c-95 -96 -214 -180 -342 -242 -197 -96 -315 -125 -507
-125 -118 0 -146 4 -225 27 -156 47 -268 120 -473 306 -62 56 -115 100 -117
98 -8 -8 184 -254 242 -310 78 -76 212 -158 314 -192 150 -50 362 -46 555 10
206 59 318 117 436 224 104 94 218 254 196 275 -2 3 -38 -29 -79 -71z"/>
</g>
</svg>
